<?xml version="1.0" encoding="utf-8"?>
<!-- Generator: Adobe Illustrator 22.0.1, SVG Export Plug-In . SVG Version: 6.00 Build 0)  -->
<svg version="1.1" id="Lag_1" xmlns="http://www.w3.org/2000/svg" xmlns:xlink="http://www.w3.org/1999/xlink" x="0px" y="0px"
	 viewBox="0 0 1263 346" style="enable-background:new 0 0 1263 346;" xml:space="preserve">
<style type="text/css">
	.st0{fill:#FFFFFF;stroke:#FFFFFF;stroke-miterlimit:10;}
	.st1{fill:#FF0005;}
	.st2{font-family:'ArialMT';}
	.st3{font-size:426.7974px;}
	.st4{font-size:29.0003px;}
	.st5{fill:none;stroke:#FFFFFF;stroke-width:10;stroke-miterlimit:10;}
	.st6{font-size:249.8643px;}
</style>
<g>
	<g>
		<path class="st0" d="M164.6,30.7c38,0,73.8,14.8,100.7,41.7C292.2,99.3,307,135,307,173.1s-14.8,73.8-41.7,100.7
			c-26.9,26.9-62.6,41.7-100.7,41.7s-73.8-14.8-100.7-41.7C37,246.8,22.2,211.1,22.2,173S37,99.2,63.9,72.3
			C90.8,45.5,126.6,30.7,164.6,30.7 M164.6,15.7C77.7,15.7,7.2,86.1,7.2,173.1s70.4,157.4,157.4,157.4S321.9,259.9,321.9,173
			S251.5,15.7,164.6,15.7L164.6,15.7z"/>
	</g>
</g>
<text transform="matrix(1.1 0 0 1 51.8247 295.2998)" class="st1 st2 st3">v</text>
<text transform="matrix(1.1 0 0 1 371.3135 316.0391)" class="st0 st2 st4">Mølleåparken boligsociale helhedsplan</text>
<g>
	<path class="st5" d="M1092.4,330.7c-296.3,0-592.6,0-889,0c210.2,0,210.2-315.3,0-315.3c296.3,0,592.6,0,889,0
		C1302.6,15.4,1302.6,330.7,1092.4,330.7z"/>
</g>
<text transform="matrix(1.1 0 0 1 354.2305 246.2686)" class="st0 st2 st6">Marken</text>
</svg>
